<?xml version="1.0" encoding="UTF-8" standalone="no"?>
<!-- Created with Inkscape (http://www.inkscape.org/) -->

<svg
   width="40.0px"
   height="40.0px"
   viewBox="0 0 40.0 40.0"
   version="1.1"
   id="SVGRoot"
   sodipodi:docname="side_notes_characters.svg"
   inkscape:export-filename="C:\Users\Basti\Desktop\programming\browser-extension\sidenotes\icons\pen_paper.png"
   inkscape:export-xdpi="96"
   inkscape:export-ydpi="96"
   inkscape:version="1.1.1 (3bf5ae0d25, 2021-09-20)"
   xmlns:inkscape="http://www.inkscape.org/namespaces/inkscape"
   xmlns:sodipodi="http://sodipodi.sourceforge.net/DTD/sodipodi-0.dtd"
   xmlns="http://www.w3.org/2000/svg"
   xmlns:svg="http://www.w3.org/2000/svg">
  <sodipodi:namedview
     id="namedview14"
     pagecolor="#ffffff"
     bordercolor="#666666"
     borderopacity="1.0"
     inkscape:pageshadow="2"
     inkscape:pageopacity="0.0"
     inkscape:pagecheckerboard="0"
     inkscape:document-units="px"
     showgrid="true"
     inkscape:zoom="11.313709"
     inkscape:cx="11.623068"
     inkscape:cy="24.969708"
     inkscape:window-width="1920"
     inkscape:window-height="1017"
     inkscape:window-x="1912"
     inkscape:window-y="-8"
     inkscape:window-maximized="1"
     inkscape:current-layer="layer1">
    <inkscape:grid
       type="xygrid"
       id="grid20" />
  </sodipodi:namedview>
  <defs
     id="defs9">
    <inkscape:path-effect
       effect="skeletal"
       id="path-effect1114"
       is_visible="true"
       lpeversion="1"
       pattern="m 13.5,14 h 14 c 0.277,0 0.5,0.223 0.5,0.5 0,0.277 -0.223,0.5 -0.5,0.5 h -14 C 13.223,15 13,14.777 13,14.5 13,14.223 13.223,14 13.5,14 Z"
       copytype="single_stretched"
       prop_scale="1"
       scale_y_rel="false"
       spacing="0"
       normal_offset="0"
       tang_offset="0"
       prop_units="false"
       vertical_pattern="false"
       hide_knot="false"
       fuse_tolerance="0" />
    <inkscape:path-effect
       effect="simplify"
       id="path-effect1065"
       is_visible="true"
       lpeversion="1"
       steps="1"
       threshold="0.000408163"
       smooth_angles="360"
       helper_size="0"
       simplify_individual_paths="false"
       simplify_just_coalesce="false" />
    <inkscape:path-effect
       effect="skeletal"
       id="path-effect704"
       is_visible="true"
       lpeversion="1"
       pattern="m 13.5,14 h 14 c 0.277,0 0.5,0.223 0.5,0.5 0,0.277 -0.223,0.5 -0.5,0.5 h -14 C 13.223,15 13,14.777 13,14.5 13,14.223 13.223,14 13.5,14 Z"
       copytype="single_stretched"
       prop_scale="1"
       scale_y_rel="false"
       spacing="0"
       normal_offset="0"
       tang_offset="0"
       prop_units="false"
       vertical_pattern="false"
       hide_knot="false"
       fuse_tolerance="0" />
    <inkscape:path-effect
       effect="simplify"
       id="path-effect655"
       is_visible="true"
       lpeversion="1"
       steps="1"
       threshold="0.000408163"
       smooth_angles="360"
       helper_size="0"
       simplify_individual_paths="false"
       simplify_just_coalesce="false" />
  </defs>
  <g
     inkscape:label="Layer 1"
     inkscape:groupmode="layer"
     id="layer1">
    <g
       aria-label="S"
       id="text5408"
       style="font-size:52.7308px;fill:#008080;stroke:#ffffff;stroke-width:0.5">
      <g
         id="path21217">
        <path
           style="color:#000000;-inkscape-font-specification:'Ink Free';stroke:none;-inkscape-stroke:none"
           d="m 25.372722,28.332962 q 0,2.63654 -1.792848,5.220349 -1.740116,2.531079 -4.956695,4.113003 -3.163848,1.634654 -7.224119,1.634654 -3.4275025,0 -5.4312729,-0.580038 -2.0037705,-0.527308 -2.0037705,-1.529194 0,-0.527308 0.7382312,-1.740116 0.7909621,-1.265539 1.2128085,-1.265539 0.6327696,0 0.6327696,0.263654 0,0.158192 -0.2109232,0.369115 -0.1581924,0.210924 -0.1581924,0.421847 0,0.158192 0.6327696,0.474577 0.6855004,0.316385 2.0565012,0.580039 1.3710009,0.263654 3.3220409,0.263654 3.111117,0 5.431272,-1.212809 2.372886,-1.212808 3.638425,-3.058386 1.265539,-1.845578 1.265539,-3.585694 0,-2.267425 -2.214693,-3.90208 Q 18.148602,23.165343 13.297368,21.688881 8.6043271,20.159688 6.0205179,19.157803 3.4894394,18.103187 1.9075154,16.626724 0.32559139,15.097531 0.32559139,12.935568 q 0,-2.900194 3.26930961,-5.6949263 3.2693097,-2.8474632 8.067813,-4.5875797 4.798502,-1.79284719 8.911505,-1.79284719 2.109232,0 2.267424,0.84369279 0.158193,0.8436928 0.158193,1.8983088 0,0.7909621 -0.580039,0.7909621 -0.263654,0 -0.63277,-0.1581924 Q 21.470642,4.0240629 21.206988,3.9186012 20.890604,3.8131396 20.468757,3.707678 20.046911,3.6022164 19.255949,3.6022164 q -2.742002,0 -6.59135,1.4237317 -3.8493487,1.4237316 -6.6968119,3.5329636 -2.7947325,2.1092323 -2.7947325,4.0602713 0,1.581924 1.2655392,2.742002 1.3182701,1.160078 3.4802329,2.00377 2.1619633,0.790962 6.1167733,2.003771 5.800388,1.687385 8.542389,3.796617 2.794733,2.109233 2.794733,5.167619 z"
           id="path21222" />
        <path
           style="color:#000000;-inkscape-font-specification:'Ink Free';fill:#ffffff;stroke:none;-inkscape-stroke:none"
           d="m 20.574219,0.609375 c -2.778324,0 -5.777112,0.6051671 -8.998047,1.8085938 C 8.3539617,3.5866649 5.6374387,5.1315555 3.4316406,7.0527344 1.2204741,8.9433059 0.07617187,10.908538 0.07617187,12.935547 c 0,1.502283 0.56125834,2.810714 1.65820313,3.871094 v 0.002 h 0.00195 c 1.0815303,1.009428 2.4789508,1.868182 4.1875,2.580078 l 0.00391,0.002 h 0.00195 c 1.730133,0.670868 4.1598835,1.5149 7.2910155,2.535156 l 0.002,0.002 h 0.002 C 16.444073,22.907571 18.761721,23.942646 20.160156,25 l 0.002,0.002 c 1.432025,1.056971 2.113282,2.268999 2.113282,3.699219 0,1.09947 -0.399689,2.245152 -1.222657,3.445312 -0.816922,1.191346 -1.992721,2.183216 -3.544922,2.976563 l -0.002,0.002 c -1.506112,0.787286 -3.274816,1.183594 -5.316406,1.183594 -1.289431,0 -2.3810343,-0.0862 -3.2734374,-0.257813 -0.9025588,-0.173569 -1.5745675,-0.367261 -1.9980469,-0.5625 h -0.00195 c -0.1981074,-0.09953 -0.3470091,-0.187991 -0.4296875,-0.25 -0.02466,-0.0185 -0.030329,-0.02508 -0.042969,-0.03711 0.00708,-0.0689 0.023998,-0.139419 0.09375,-0.232422 l -0.023437,0.02734 c 0.1627123,-0.162712 0.2832031,-0.330303 0.2832031,-0.546875 0,-0.187885 -0.1504655,-0.361034 -0.3105469,-0.427735 -0.1600814,-0.0667 -0.3420284,-0.08594 -0.5703125,-0.08594 -0.2656152,0 -0.4731409,0.1627 -0.6953125,0.394531 -0.2221716,0.231831 -0.4615216,0.557966 -0.7304687,0.988281 v 0.002 l -0.00195,0.002 c -0.5005206,0.822283 -0.7734375,1.400935 -0.7734374,1.86914 -1e-7,0.417295 0.2218309,0.795217 0.5976562,1.082031 0.3744923,0.285797 0.9027284,0.507126 1.5859375,0.6875 4.818e-4,1.4e-4 0.00147,-1.39e-4 0.00195,0 1.3722554,0.396995 3.1997521,0.589844 5.4980474,0.589844 2.738773,0 5.188874,-0.551684 7.335937,-1.660156 l 0.0039,-0.002 c 2.173757,-1.069778 3.860583,-2.467843 5.046875,-4.19336 1.217936,-1.755259 1.837891,-3.548923 1.837891,-5.363281 0,-2.114175 -0.984641,-3.924377 -2.892578,-5.365234 -1.869988,-1.438452 -4.741398,-2.708116 -8.625,-3.837891 -2.631968,-0.807186 -4.6685568,-1.473776 -6.1015627,-1.998047 -1.417152,-0.553688 -2.549413,-1.2084 -3.3984376,-1.955078 -5.775e-4,-5.08e-4 -0.00138,-0.0014 -0.00195,-0.002 -0.798945,-0.734147 -1.1796875,-1.56856 -1.1796875,-2.554687 0,-1.180752 0.8616147,-2.476303 2.6933594,-3.8593754 l 0.00195,-0.00195 C 7.9953191,7.3684009 10.205534,6.2015918 12.751953,5.2597656 c 2.548116,-0.9424538 4.719176,-1.4082031 6.503906,-1.4082031 0.516197,0 0.906781,0.038219 1.152344,0.099609 0.272813,0.068203 0.509636,0.1363207 0.710938,0.203125 0.153219,0.061861 0.331343,0.1570938 0.529296,0.2890625 l 0.01953,0.011719 0.02148,0.00977 c 0.265886,0.1139512 0.5047,0.1777344 0.730469,0.1777344 0.250164,0 0.493044,-0.1029084 0.636719,-0.2988281 C 23.200315,4.1478303 23.25,3.8957718 23.25,3.6015625 23.25,2.8859858 23.19683,2.2392092 23.087891,1.6582031 23.016615,1.2780672 22.708599,0.9942242 22.283203,0.8359375 21.857808,0.6776508 21.293962,0.609375 20.574219,0.609375 Z m 0,0.5 c 0.68641,0 1.204744,0.072369 1.535156,0.1953125 C 22.439787,1.4276315 22.561517,1.5676747 22.595703,1.75 22.697688,2.2939165 22.75,2.9109859 22.75,3.6015625 c 0,0.2330982 -0.04799,0.3775784 -0.09766,0.4453125 -0.04967,0.067734 -0.09589,0.095703 -0.232422,0.095703 -0.124908,0 -0.307132,-0.041172 -0.53125,-0.1367187 -0.0011,-6.912e-4 -0.0028,6.895e-4 -0.0039,0 C 21.679312,3.8718466 21.485085,3.7592683 21.300781,3.6855469 l -0.0078,-0.00195 -0.0078,-0.00195 C 21.066328,3.6086977 20.815284,3.5363403 20.529297,3.4648438 20.212399,3.3856193 19.794278,3.3515625 19.255859,3.3515625 c -1.871268,0 -4.093391,0.4835999 -6.677734,1.4394531 C 9.9930328,5.7471455 7.7383447,6.9352105 5.8183594,8.3574219 v 0.00195 h -0.00195 c -1.8927374,1.4284812 -2.8925781,2.839705 -2.8925781,4.259766 0,1.121281 0.4602855,2.114148 1.3457031,2.925781 l 0.00195,0.002 0.00195,0.002 c 0.907164,0.798305 2.0932611,1.478516 3.5546875,2.048828 l 0.00195,0.002 h 0.00195 c 1.4487803,0.530042 3.4919658,1.198552 6.1308598,2.007813 h 0.002 v 0.002 c 3.85024,1.120069 6.674927,2.380052 8.460937,3.753906 l 0.002,0.002 c 1.816778,1.371154 2.695313,3.004025 2.695313,4.966797 0,1.701025 -0.575521,3.388309 -1.748047,5.078125 v 0.002 h -0.002 c -1.133111,1.648162 -2.746353,2.990106 -4.859375,4.029297 l -0.0039,0.002 h -0.002 c -2.070483,1.06975 -4.43608,1.607422 -7.109374,1.607422 -2.2708974,0 -4.062054,-0.194207 -5.3613286,-0.570312 h -0.00195 l -0.00391,-0.002 C 5.3821697,38.307705 4.909285,38.09987 4.6171875,37.876953 4.32509,37.654037 4.2148437,37.442035 4.2148437,37.191406 c 0,-0.234528 0.2169178,-0.81442 0.6992188,-1.607422 l 0.00195,-0.002 c 0.2575817,-0.411853 0.4843592,-0.716695 0.6660156,-0.90625 0.1820975,-0.190014 0.318369,-0.240234 0.3339844,-0.240234 0.1845504,0 0.3035649,0.0244 0.359375,0.04492 -0.00689,0.01716 -0.015694,0.06257 -0.1152344,0.162109 l -0.011719,0.01172 -0.011719,0.01367 c -0.1294612,0.172615 -0.2089843,0.36915 -0.2089843,0.572265 0,0.109699 0.049022,0.187743 0.095703,0.246094 0.046681,0.05835 0.1006651,0.104796 0.1640625,0.152344 0.1267948,0.0951 0.2933422,0.191593 0.5117187,0.300781 l 0.00391,0.002 h 0.00391 c 0.490587,0.226425 1.1886585,0.421798 2.1132813,0.59961 0.9355963,0.179922 2.0571875,0.267578 3.3691405,0.267578 2.105856,0 3.957851,-0.411002 5.544922,-1.240235 1.611644,-0.823729 2.861961,-1.869249 3.732422,-3.138672 0.864416,-1.260607 1.308594,-2.507833 1.308594,-3.728515 0,-1.593011 -0.79551,-2.978996 -2.316407,-4.101563 C 18.975457,23.4783 16.62057,22.439266 13.375,21.451172 l -0.0039,-0.002 C 10.247397,20.431325 7.8253048,19.588431 6.1113281,18.923828 4.4504223,18.230987 3.1077576,17.403649 2.0820313,16.447266 l -0.00195,-0.002 c -5.825e-4,-5.43e-4 -0.00137,-0.0014 -0.00195,-0.002 -1.0094473,-0.977668 -1.50195312,-2.129393 -1.50195313,-3.507812 0,-1.839522 1.03456973,-3.6685072 3.18164063,-5.5039064 v -0.00195 h 0.00195 C 5.9126427,5.5546011 8.5730268,4.0400527 11.748047,2.8886719 l 0.002,-0.00195 C 14.927061,1.6996848 17.868544,1.109375 20.574219,1.109375 Z"
           id="path21224" />
      </g>
    </g>
    <g
       aria-label="N"
       transform="scale(0.93666564,1.0676168)"
       id="text17425"
       style="font-size:56.8984px;fill:#008080;stroke:#f9f9f9;stroke-width:0.5">
      <g
         id="path21208">
        <path
           style="color:#000000;-inkscape-font-specification:'Ink Free';stroke:none;-inkscape-stroke:none"
           d="m 41.882669,35.74234 q 0,0.682781 -2.219037,0.682781 -0.398289,0 -5.34845,-6.088129 Q 29.42192,24.191965 26.235609,19.867687 25.780422,19.241804 23.333791,15.714103 19.749192,10.479451 18.895716,9.3983811 l -0.113797,4.3811769 -0.0569,4.26738 q 0,4.039786 -0.113797,8.762353 -0.0569,4.722567 -0.170695,7.510589 -0.0569,0.682781 -0.625883,1.251765 -0.512085,0.568984 -1.081069,0.568984 -0.625883,0 -0.910375,-0.341391 -0.227593,-0.398288 -0.227593,-1.479358 0,-0.682781 0.227593,-4.210482 0.512086,-6.543315 0.512086,-10.981391 0,-3.5277 0.113797,-6.657112 0.113797,-3.1863107 0.113797,-3.9259899 l 0.0569,-1.6500536 V 6.7241563 q 0,-0.6258823 0.170695,-0.9672727 0.227594,-0.3982888 0.853476,-0.3982888 h 0.284492 q 0.625883,0 2.446631,2.2759359 1.877648,2.2190376 4.722568,6.0881283 0.625882,0.796578 1.194866,1.593156 0.568984,0.739679 1.081069,1.42246 3.243209,4.153583 3.413904,4.381176 8.079573,10.298611 8.819252,11.721071 -0.113796,-0.455188 -0.398288,-2.105241 -0.284492,-1.650054 -0.568984,-4.324278 -0.227594,-2.674225 -0.227594,-5.519145 0,-5.063958 -0.967273,-13.3711241 -0.284492,-2.7311231 -0.284492,-3.3570055 0,-2.1621392 2.446631,-2.1621392 0.568984,0 0.853476,1.1948664 0.284492,1.137968 0.398289,4.8932623 0.113797,3.7552941 0.113797,12.0055621 0,2.617327 0.170695,5.120856 0.227594,2.50353 0.398289,4.438075 0.284492,2.674225 0.284492,4.039787 z"
           id="path21213" />
        <path
           style="color:#000000;-inkscape-font-specification:'Ink Free';fill:#f9f9f9;stroke:none;-inkscape-stroke:none"
           d="m 39.607422,1.7519531 c -0.852365,0 -1.532212,0.1883953 -2.001953,0.6035157 -0.469742,0.4151203 -0.695313,1.0407323 -0.695313,1.8085937 0,0.4551333 0.09529,1.5601082 0.285156,3.3828125 v 0.00195 c 0.644174,5.5323089 0.966797,9.9836989 0.966797,13.3437499 0,1.903278 0.07615,3.748784 0.228516,5.539063 v 0.0039 0.002 c 0.190016,1.786153 0.381133,3.231274 0.572266,4.339844 0.08807,0.510825 0.121919,0.644365 0.185546,0.984375 -0.427716,-0.65187 -0.8298,-1.269275 -1.916015,-2.712891 -1.470889,-1.954859 -3.552471,-4.649104 -6.244141,-8.080078 l -0.0039,-0.0039 C 30.850888,20.786974 29.7301,19.348935 27.574219,16.587891 l -0.0039,-0.0039 c -0.339555,-0.452702 -0.697407,-0.924156 -1.074218,-1.414062 l -0.0059,-0.0059 c -0.378863,-0.530192 -0.775202,-1.059961 -1.191406,-1.589844 l -0.0039,-0.0059 c -1.89461,-2.576466 -3.468491,-4.6050329 -4.72461,-6.0898434 l -0.0039,-0.00586 C 19.957552,6.7119744 19.445507,6.1367631 19.023437,5.7441406 18.600098,5.3503366 18.287877,5.109375 17.927734,5.109375 h -0.283203 c -0.470284,0 -0.869605,0.172201 -1.070312,0.5234375 l -0.0039,0.00586 -0.0039,0.00586 C 16.42528,5.926784 16.369141,6.2846277 16.369141,6.7246094 V 6.890625 L 16.3125,8.5410156 v 0.00391 c 0,0.4802984 -0.03744,1.7944531 -0.113281,3.9179691 -0.07594,2.089147 -0.113282,4.312219 -0.113282,6.666015 0,2.949099 -0.170671,6.603115 -0.511718,10.960938 v 0.002 0.002 c -0.151795,2.352832 -0.228516,3.743598 -0.228516,4.226562 0,0.738257 0.05969,1.253393 0.259766,1.603516 l 0.01172,0.01758 0.01367,0.01758 c 0.247383,0.29686 0.640807,0.431641 1.103516,0.431641 0.461237,0 0.890305,-0.239188 1.261719,-0.650391 0.407579,-0.410173 0.650416,-0.885084 0.693359,-1.40039 v -0.0039 -0.0059 c 0.07601,-1.862246 0.133925,-4.366988 0.171875,-7.515625 v -0.002 c 0.07584,-3.147885 0.113248,-6.067782 0.113281,-8.761719 v -0.0039 l 0.05664,-4.261719 0.0957,-3.625 c 0.661943,0.878665 1.841386,2.543051 4,5.695313 h 0.002 v 0.002 c 1.631278,2.352075 2.594746,3.73257 2.904297,4.158203 h 0.002 c 2.126912,2.886523 4.820484,6.378213 8.083985,10.476562 l 0.002,0.002 c 1.651087,2.030647 2.92289,3.554908 3.818359,4.574218 0.447735,0.509656 0.800737,0.893023 1.064453,1.154297 0.131858,0.130637 0.240273,0.230959 0.333985,0.304688 0.04686,0.03686 0.09021,0.06588 0.136718,0.0918 0.04651,0.02592 0.09324,0.05664 0.189453,0.05664 0.752499,0 1.323667,-0.05407 1.738282,-0.18164 0.207307,-0.06379 0.378567,-0.146622 0.511718,-0.269532 0.133152,-0.122909 0.21875,-0.300917 0.21875,-0.482422 v -0.0039 -0.002 l -0.05664,-2.042969 c 0,-0.927734 -0.09698,-2.27914 -0.28711,-4.066406 l 0.002,0.0059 c -0.113673,-1.288291 -0.246942,-2.767086 -0.398438,-4.433593 v -0.0059 c -0.113134,-1.661298 -0.169922,-3.360203 -0.169922,-5.097656 0,-5.501322 -0.0392,-9.504605 -0.115234,-12.0136717 -0.076,-2.508083 -0.200985,-4.1292342 -0.404297,-4.9433594 v -0.00195 C 40.604032,2.7211884 40.48109,2.3957913 40.308594,2.1542969 40.135802,1.9123889 39.884583,1.7519531 39.607422,1.7519531 Z m 0,0.5 c 0.102161,0 0.181268,0.036979 0.292969,0.1933594 0.1117,0.1563805 0.225924,0.4285715 0.316406,0.8085938 v 0.00195 0.00195 c 0.17587,0.7034797 0.316881,2.341857 0.392578,4.8398438 0.0757,2.4979867 0.113281,6.4990227 0.113281,11.9980467 0,1.750318 0.05768,3.461802 0.171875,5.136719 v 0.0039 0.002 c 0.151714,1.668849 0.284666,3.14809 0.398438,4.4375 v 0.002 0.002 c 0.189187,1.778364 0.283203,3.12066 0.283203,4.013672 v 0.0039 l 0.05664,2.044921 c 0,0.04609 -0.0068,0.06745 -0.05859,0.115235 -0.05177,0.04779 -0.157781,0.108193 -0.320313,0.158203 -0.317473,0.09768 -0.85144,0.153541 -1.552734,0.15625 -0.01324,-0.0084 -0.02672,-0.0186 -0.05273,-0.03906 -0.0675,-0.05311 -0.168784,-0.14259 -0.292968,-0.265625 -0.248369,-0.246069 -0.597343,-0.623874 -1.041016,-1.128906 -0.886935,-1.009596 -2.154833,-2.529949 -3.802734,-4.55664 l -0.002,-0.002 C 31.250217,26.086256 28.558444,22.599087 26.4375,19.720703 v -0.002 c -0.297696,-0.409367 -1.26806,-1.795707 -2.898438,-4.146484 h 0.002 C 21.150592,12.081489 19.676906,9.9852788 19.091797,9.2441406 l -0.427735,-0.5429687 -0.132812,5.0742191 -0.05664,4.269531 v 0.002 c 0,2.690841 -0.03746,5.609201 -0.113281,8.755859 v 0.002 0.002 c -0.03786,3.142047 -0.0944,5.638436 -0.169922,7.492187 -0.03268,0.392187 -0.205821,0.74879 -0.552734,1.095703 l -0.0059,0.0059 -0.0039,0.0039 c -0.31059,0.3451 -0.598542,0.486328 -0.894531,0.486328 -0.360641,0 -0.564409,-0.09439 -0.697266,-0.244141 -0.100607,-0.189255 -0.191406,-0.638178 -0.191406,-1.326172 0,-0.427012 0.07518,-1.844558 0.226563,-4.191406 V 30.125 c 0.341491,-4.364545 0.513671,-8.028816 0.513671,-10.996094 0,-2.349109 0.03754,-4.565574 0.113282,-6.648437 0.07574,-2.12068 0.11313,-3.4196387 0.113281,-3.9277346 v -0.00781 l 0.05664,-1.6464844 V 6.7246094 c 0,-0.3900005 0.05776,-0.6721441 0.142578,-0.8457032 C 17.114663,5.701317 17.282601,5.609375 17.644531,5.609375 h 0.283203 c 0.05711,0 0.363656,0.1371126 0.75586,0.5019531 0.392203,0.3648405 0.893543,0.9264988 1.496093,1.6796875 l 0.002,0.00195 0.002,0.00391 c 1.2457,1.472191 2.818316,3.497598 4.71289,6.074219 l 0.002,0.002 0.002,0.0039 c 0.41498,0.528158 0.812421,1.05614 1.189453,1.583985 l 0.002,0.0039 0.002,0.0039 c 0.378756,0.492382 0.739355,0.965624 1.080078,1.419922 l 0.002,0.002 v 0.002 c 2.162084,2.768984 3.316313,4.249224 3.41211,4.376953 l 0.002,0.002 v 0.002 c 2.692606,3.432126 4.774118,6.125061 6.242187,8.076172 1.468069,1.951112 2.335155,3.187047 2.552735,3.605469 l 0.464843,-0.175781 c -0.07051,-0.282059 -0.205164,-0.98761 -0.394531,-2.085938 -0.187938,-1.090041 -0.377353,-2.526551 -0.566406,-4.302734 v -0.0059 c -0.150773,-1.773585 -0.226563,-3.604254 -0.226563,-5.492188 0,-3.391394 -0.323414,-7.855652 -0.96875,-13.3984374 v -0.00195 c -0.189235,-1.8169322 -0.283203,-2.9489701 -0.283203,-3.328125 0,-0.6735633 0.181543,-1.1299549 0.527344,-1.4355469 0.345801,-0.305592 0.891201,-0.4765625 1.669922,-0.4765625 z"
           id="path21215" />
      </g>
    </g>
    <path
       style="fill:#008080;fill-opacity:1;stroke:#000000;stroke-width:0;stroke-linecap:butt;stroke-linejoin:miter;stroke-miterlimit:4;stroke-dasharray:none;stroke-opacity:1"
       d="m 15,22 c 0,0 3.492187,1.492187 3,1 v -2 c -0.49166,-0.292786 -3.121534,-1.292786 -3,-1 z"
       id="path21316"
       sodipodi:nodetypes="ccccc" />
    <path
       style="fill:none;stroke:#ffffff;stroke-width:0.5;stroke-linecap:butt;stroke-linejoin:miter;stroke-miterlimit:4;stroke-dasharray:none;stroke-opacity:1"
       d="m 14,22 c -1.796875,-0.859375 3,1 3,1 2.6875,1.15625 1,1 1,1"
       id="path21810"
       sodipodi:nodetypes="ccc" />
    <path
       style="fill:none;stroke:#ffffff;stroke-width:0.5;stroke-linecap:butt;stroke-linejoin:miter;stroke-miterlimit:4;stroke-dasharray:none;stroke-opacity:1"
       d="m 19,21 c 1.796875,0.859375 -3,-1 -3,-1 -2.6875,-1.15625 -1,-1 -1,-1"
       id="path21810-0"
       sodipodi:nodetypes="ccc" />
  </g>
</svg>
